<svg xmlns="http://www.w3.org/2000/svg" width="32" height="32" viewBox="0 0 100 100">
  <path d="M50 8 C38 8 30 14 26 22 C18 22 12 30 12 40 C12 48 16 54 22 58 C22 66 28 72 36 74 L36 80 C36 84 40 86 44 86 L56 86 C60 86 64 84 64 80 L64 74 C72 72 78 66 78 58 C84 54 88 48 88 40 C88 30 82 22 74 22 C70 14 62 8 50 8 Z" fill="#4338ca"/>
  <path d="M50 12 L50 80" stroke="white" stroke-width="1.5" opacity="0.35"/>
  <path d="M30 30 C36 32 42 38 46 46" stroke="white" stroke-width="2" fill="none" opacity="0.4" stroke-linecap="round"/>
  <path d="M22 46 C30 44 38 48 44 56" stroke="white" stroke-width="2" fill="none" opacity="0.35" stroke-linecap="round"/>
  <path d="M30 60 C36 58 42 62 46 68" stroke="white" stroke-width="1.5" fill="none" opacity="0.3" stroke-linecap="round"/>
  <path d="M70 30 C64 32 58 38 54 46" stroke="white" stroke-width="2" fill="none" opacity="0.4" stroke-linecap="round"/>
  <path d="M78 46 C70 44 62 48 56 56" stroke="white" stroke-width="2" fill="none" opacity="0.35" stroke-linecap="round"/>
  <path d="M70 60 C64 58 58 62 54 68" stroke="white" stroke-width="1.5" fill="none" opacity="0.3" stroke-linecap="round"/>
  <rect x="42" y="84" width="16" height="6" rx="3" fill="#4338ca" opacity="0.6"/>
</svg>
